<?xml version="1.0" standalone="no"?>
<!DOCTYPE svg PUBLIC "-//W3C//DTD SVG 20010904//EN"
 "http://www.w3.org/TR/2001/REC-SVG-20010904/DTD/svg10.dtd">
<svg version="1.0" xmlns="http://www.w3.org/2000/svg"
 width="600.000000pt" height="600.000000pt" viewBox="0 0 600.000000 600.000000"
 preserveAspectRatio="xMidYMid meet">
<metadata>
Created by potrace 1.14, written by Peter Selinger 2001-2017
</metadata>
<g transform="translate(0.000000,600.000000) scale(0.100000,-0.100000)"
fill="#000000" stroke="none">
<path d="M2357 4603 c-4 -3 10 -18 31 -32 75 -51 200 -161 258 -228 32 -37 61
-70 64 -73 3 -3 39 -43 80 -90 227 -257 352 -355 547 -426 38 -13 79 -24 92
-24 l23 0 -4 113 c-14 346 -274 621 -688 726 -135 34 -383 55 -403 34z"/>
<path d="M2785 3794 c-223 -33 -462 -164 -699 -384 -85 -79 -94 -87 -169 -172
-83 -92 -138 -169 -131 -180 14 -23 516 7 694 42 25 4 74 14 110 20 290 51
553 157 678 274 78 73 144 170 140 205 -6 47 -172 143 -313 181 -43 11 -260
21 -310 14z"/>
<path d="M3749 3736 c-77 -22 -151 -67 -219 -137 -60 -60 -110 -132 -100 -143
3 -2 42 6 86 17 75 19 87 20 150 8 78 -15 149 -52 216 -111 26 -22 55 -40 67
-40 11 0 44 11 73 24 142 64 171 220 60 322 -69 64 -219 91 -333 60z m239 -88
c28 -28 1 -75 -38 -63 -14 4 -20 15 -20 34 0 15 3 31 7 34 10 11 38 8 51 -5z"/>
<path d="M3215 3261 c-90 -64 -303 -171 -339 -171 -8 0 -18 -4 -21 -10 -3 -5
-17 -10 -30 -10 -13 0 -26 -4 -29 -9 -3 -4 -20 -11 -38 -15 -18 -3 -53 -11
-78 -16 -165 -39 -350 -60 -544 -60 -88 0 -157 -3 -154 -6 15 -15 210 -34 348
-34 153 0 245 11 375 45 108 28 267 97 342 147 23 15 45 28 48 28 9 0 175 129
175 136 0 9 -17 2 -55 -25z"/>
<path d="M547 2583 c-4 -3 -7 -84 -7 -180 l0 -173 35 0 35 0 0 60 0 60 35 0
c33 0 39 -5 73 -60 34 -56 40 -60 74 -60 l38 0 -40 65 -39 64 29 30 c53 53 35
152 -34 185 -34 16 -185 23 -199 9z m177 -68 c25 -25 29 -54 12 -80 -14 -22
-24 -25 -71 -25 l-55 0 0 60 0 60 49 0 c31 0 55 -6 65 -15z"/>
<path d="M988 2580 c-98 -29 -154 -148 -114 -243 18 -44 78 -95 121 -103 77
-14 139 11 182 76 48 69 39 151 -24 220 -46 52 -103 69 -165 50z m87 -64 c46
-19 69 -66 62 -125 -12 -105 -139 -139 -190 -51 -36 60 -12 150 46 175 40 18
41 18 82 1z"/>
<path d="M1210 2586 c0 -2 29 -56 65 -119 60 -107 65 -119 65 -176 l0 -61 30
0 c30 0 30 0 30 57 0 51 6 68 65 174 36 65 65 121 65 124 0 3 -15 5 -33 5 -31
0 -35 -5 -77 -84 -25 -46 -48 -82 -53 -79 -4 2 -25 40 -47 84 -39 76 -42 79
-75 79 -19 0 -35 -2 -35 -4z"/>
<path d="M1635 2578 c-2 -7 -31 -86 -65 -176 -33 -89 -60 -165 -60 -167 0 -3
15 -5 33 -5 29 0 34 4 47 43 l15 42 69 0 69 0 15 -42 c12 -39 17 -43 48 -43
l34 0 -19 48 c-10 26 -40 107 -67 180 l-49 132 -33 0 c-18 0 -35 -6 -37 -12z
m85 -200 c0 -5 -22 -8 -49 -8 l-50 0 20 58 c10 31 22 64 25 72 4 9 15 -10 30
-50 13 -36 24 -68 24 -72z"/>
<path d="M1887 2583 c-4 -3 -7 -84 -7 -180 l0 -173 125 0 125 0 0 30 0 30 -90
0 -90 0 0 150 0 150 -28 0 c-16 0 -32 -3 -35 -7z"/>
<path d="M2307 2583 c-4 -3 -7 -84 -7 -180 l0 -173 35 0 35 0 0 75 0 76 83 -3
82 -3 3 -72 3 -73 29 0 30 0 0 180 0 180 -30 0 -30 0 0 -75 0 -75 -85 0 -85 0
0 75 0 75 -28 0 c-16 0 -32 -3 -35 -7z"/>
<path d="M2722 2428 c-33 -90 -64 -171 -67 -180 -6 -15 -1 -18 28 -18 33 0 36
3 50 43 l14 42 68 0 68 0 15 -42 c12 -39 17 -43 48 -43 l34 0 -36 98 c-106
291 -92 262 -129 262 l-33 0 -60 -162z m117 20 c12 -34 21 -66 21 -70 0 -4
-20 -8 -45 -8 -25 0 -45 4 -45 8 0 11 41 132 45 132 2 0 13 -28 24 -62z"/>
<path d="M3107 2576 c-50 -18 -72 -39 -97 -90 -67 -140 66 -295 213 -247 33
11 87 55 87 71 0 4 -12 12 -27 19 -22 10 -29 10 -38 -2 -54 -73 -171 -32 -182
64 -13 113 97 179 173 104 22 -22 25 -23 44 -7 61 50 -81 122 -173 88z"/>
<path d="M3337 2583 c-4 -3 -7 -17 -7 -29 0 -21 5 -23 58 -26 l57 -3 3 -147 3
-148 29 0 29 0 3 148 3 147 58 3 c56 3 57 4 57 32 l0 30 -143 0 c-79 0 -147
-3 -150 -7z"/>
<path d="M3680 2410 l0 -180 30 0 29 0 3 73 3 72 83 3 82 3 0 -76 0 -75 35 0
35 0 -2 178 -3 177 -30 0 -30 0 -3 -72 -3 -73 -84 0 -85 0 0 75 0 75 -30 0
-30 0 0 -180z"/>
<path d="M4060 2410 l0 -180 126 0 125 0 -3 28 -3 27 -93 3 -93 3 3 47 3 47
78 3 c73 3 77 4 77 26 0 30 -16 36 -96 36 l-65 0 3 38 3 37 88 3 87 3 0 29 0
30 -120 0 -120 0 0 -180z"/>
<path d="M4367 2583 c-4 -3 -7 -84 -7 -180 l0 -173 35 0 35 0 0 60 0 60 35 0
c33 0 39 -5 73 -60 34 -56 40 -60 74 -60 l38 0 -40 65 -39 64 29 30 c53 53 35
152 -34 185 -34 16 -185 23 -199 9z m177 -68 c25 -25 29 -54 12 -80 -14 -22
-24 -25 -71 -25 l-55 0 0 60 0 60 49 0 c31 0 55 -6 65 -15z"/>
<path d="M4707 2583 c-4 -3 -7 -84 -7 -180 l0 -173 35 0 35 0 0 180 0 180 -28
0 c-16 0 -32 -3 -35 -7z"/>
<path d="M4850 2410 l0 -180 126 0 125 0 -3 28 -3 27 -93 3 -93 3 3 47 3 47
78 3 c73 3 77 4 77 26 0 30 -16 36 -96 36 l-65 0 3 38 3 37 88 3 87 3 0 29 0
30 -120 0 -120 0 0 -180z"/>
<path d="M5224 2579 c-46 -13 -76 -51 -78 -98 -1 -52 13 -65 104 -99 83 -31
106 -55 76 -78 -27 -19 -73 -17 -123 6 l-43 19 -15 -30 -16 -30 37 -15 c86
-36 197 -27 229 19 8 12 15 39 15 60 0 51 -33 80 -115 102 -36 10 -70 24 -76
31 -16 19 -4 42 27 56 21 10 35 9 76 -6 42 -15 52 -15 59 -4 20 31 9 47 -43
63 -57 17 -69 17 -114 4z"/>
</g>
</svg>
